<svg id="Logos" xmlns="http://www.w3.org/2000/svg" viewBox="0 0 352.89 167.75"><defs><style>.cls-1{fill:#004b8d;}</style></defs><path class="cls-1" d="M57.07,187.48c-11.63,0-22.89-3.69-33-9.65L22,176.41,32.49,165.7c8.38,4.61,15.57,7.9,25.18,7.9,12.69,0,20.3-6.12,20.3-16.42,0-7.61-4.77-12.39-15.37-15.38l-11.05-3.13c-9.4-2.69-16.12-6.57-20-12.39a26,26,0,0,1-4.33-15.08C27.22,93,41.55,80.61,62.3,80.61c18.36,0,32.88,9.8,34,10.69-2.22,2.37-4.5,4.29-10.15,10.07-9-5.2-15.33-7.26-23.21-7.26-10.15,0-16.87,6-16.87,14.56,0,6.42,3.58,9.7,13.73,12.69L72,124.94c14.93,4.33,25.38,13.88,25.38,29.4,0,17.17-13.88,33.14-40.31,33.14" transform="translate(-21.95 -19.72)"/><polygon class="cls-1" points="152.38 165.81 91.66 165.81 91.66 62.52 109.13 62.52 109.13 151.63 156.49 151.63 152.38 165.81"/><path class="cls-1" d="M216.1,95.24H205.38v33.42H216.1c10.51,0,24.89-2,24.89-17.08S226.61,95.24,216.1,95.24M247,185.54l-9-16c-14.9-23.09-21.5-28.66-32.7-28.66v44.63H188.51V82.25h35.64c23.14,0,33.59,13.43,33.59,29.55,0,14.78-8.93,24.26-23.92,27,7.75,3.6,13.07,13.35,18.44,22l15.23,24.78Z" transform="translate(-21.95 -19.72)"/><path class="cls-1" d="M284,69.57a27.12,27.12,0,0,0-4.09,9.93,17.92,17.92,0,0,0,.42,7.52c.08.34.2.89.2.89s-1.09-.76-1.56-1.19a17.06,17.06,0,0,1-4.45-6,15.62,15.62,0,0,1-1.17-4.24,20.26,20.26,0,0,1,.89-8.85,29.87,29.87,0,0,1,2.76-6,44.25,44.25,0,0,1,6.41-8.21,62.7,62.7,0,0,1,8.42-7.19L295,44c-.48,1.08-2,4.51-2.44,5.59-1.27,2.9-4.41,11.84-4.82,14.69C287.74,64.25,284.62,68.62,284,69.57Z" transform="translate(-21.95 -19.72)"/><path class="cls-1" d="M329.47,19.81a26,26,0,0,1,2.73.39,23.93,23.93,0,0,1,5.36,1.65,27,27,0,0,1,7.29,4.49c-.53-.23-1.05-.48-1.6-.69a15.13,15.13,0,0,0-3.93-.94c-4.62-.45-8.61,1.16-12.33,3.69A14.88,14.88,0,0,0,323.87,31c-.26.14-.5,0-.74-.07A58.06,58.06,0,0,0,314.7,29a42.09,42.09,0,0,0-4.9-.46c-.9,0-1.81-.12-2.72-.11a.67.67,0,0,1-.54-.17,29,29,0,0,1,3.75-2.86,32.65,32.65,0,0,1,11.06-4.88,23,23,0,0,1,4.17-.74A27.4,27.4,0,0,1,329.47,19.81Z" transform="translate(-21.95 -19.72)"/><path class="cls-1" d="M305.41,95.64c-2.26.26-4.82-.44-7.08-.52a42.71,42.71,0,0,1-11.1-1.86,1.19,1.19,0,0,1-.25-.13l-.51-3c-.31-1.78-.51-3.57-.69-5.37a75.86,75.86,0,0,1-.21-8.92,51.83,51.83,0,0,1,.55-6.57c.12-.77.18-1.55.27-2.33.21-1.48.45-3.15.79-4.7a71.22,71.22,0,0,1,5.27-15.37c.12-.25.71-1.47,1.06-2,.79-1.46,1.45-2.48,2.23-3.94,2.35-.07,4.18,1.16,6.48,1.58a60,60,0,0,1,10.45,3c.15.05,1-.84,1.06-.69l-.81,1.7A71.13,71.13,0,0,0,309,56a92.94,92.94,0,0,0-3.89,17.61,94.93,94.93,0,0,0-.55,14,53.35,53.35,0,0,0,.61,6.66C305.25,94.54,305.33,95,305.41,95.64Z" transform="translate(-21.95 -19.72)"/><path class="cls-1" d="M363.45,62.51c-1.35-1.48-3.89-5.08-5.31-6.49-1.13-1.12-8-9.79-10.54-11.52.18-.18-.44-1.73-.52-1.88A32.38,32.38,0,0,0,341,34.45a18.34,18.34,0,0,0-9.28-5c-.62-.12-1.26-.18-2-.29A24.79,24.79,0,0,1,332,27.89a17.61,17.61,0,0,1,5.34-1.34,16.56,16.56,0,0,1,6.63.76,19.54,19.54,0,0,1,5.6,3,28.38,28.38,0,0,1,6.28,6.66c2.33,3.35,2.75,3.73,4.11,7.57a64.59,64.59,0,0,1,2.29,6.93C363.45,55.74,363.27,61.33,363.45,62.51Z" transform="translate(-21.95 -19.72)"/><path class="cls-1" d="M293.32,109.25c1.53.44,3.19,1.23,4.75,1.58a55.21,55.21,0,0,0,6.76,1.17,52.56,52.56,0,0,0,5.88.35,22.56,22.56,0,0,0,2.53,3.89,20.91,20.91,0,0,0,4.69,4.46,15.65,15.65,0,0,0,6.79,2.67,21.55,21.55,0,0,0,4.25,0,17.18,17.18,0,0,1-2.85,1,32.59,32.59,0,0,1-5.58.88,26.18,26.18,0,0,1-14.36-3.19,29.94,29.94,0,0,1-6.11-4.41,38.63,38.63,0,0,1-6.5-8C293.53,109.66,293.35,109.32,293.32,109.25Z" transform="translate(-21.95 -19.72)"/><path class="cls-1" d="M316.68,100.47" transform="translate(-21.95 -19.72)"/><path class="cls-1" d="M335.39,108.09c-2.91,1.11-5.55,1.35-9.73,2.25a94,94,0,0,1-11.38,2.16,71.78,71.78,0,0,0,13.79,4.88,46.64,46.64,0,0,0,7.8,1.09,29.64,29.64,0,0,0,7.8-.59,19.05,19.05,0,0,0,9.81-5.08,16.92,16.92,0,0,0,4.82-10.63c-.67.59-1.23,1.29-1.9,1.85a19.15,19.15,0,0,1-9.8,4.15,26.26,26.26,0,0,1-3.23.28A45.56,45.56,0,0,1,335.39,108.09Z" transform="translate(-21.95 -19.72)"/><path class="cls-1" d="M286.74,93.11a23.05,23.05,0,0,1-10-6.12,14.9,14.9,0,0,1-3.22-5.39,13.72,13.72,0,0,1-.8-4.21,16.31,16.31,0,0,0-.41,3.33,25.92,25.92,0,0,0,.48,6.81A26.7,26.7,0,0,0,281,102.08a34.46,34.46,0,0,0,9.57,6.21c1,.42,1.93.81,2.89,1.21l1.48.55a39.86,39.86,0,0,0,6.82,1.73c2.2.37,4.42.55,6.64.71a49.77,49.77,0,0,0,5.25.05c.81-.05,3.45-.28,7.46-.9a121,121,0,0,0,14.25-3.55,86.45,86.45,0,0,0,15.34-7.75,63.24,63.24,0,0,0,8.14-6.25,70.42,70.42,0,0,0,11.65-14.61c.17-.28.3-.59.45-.89a33.11,33.11,0,0,0,3.77-17.68,26.31,26.31,0,0,0-1.36-6.57A27.19,27.19,0,0,0,365.74,43c-.39-.35-1.57-1.19-1.55-1.19l.3.38a15.5,15.5,0,0,1,2.88,13,24.84,24.84,0,0,1-1.88,5.65A23.79,23.79,0,0,1,364,63.57c-3.54,7.72-13.12,14-13.12,14A81.82,81.82,0,0,1,339.22,85,90.37,90.37,0,0,1,325.08,91,80.55,80.55,0,0,1,313,94c-3.34.49-5.25.66-6.17.75A28.46,28.46,0,0,1,304,95a64.58,64.58,0,0,1-6.63-.1A46.83,46.83,0,0,1,286.74,93.11Z" transform="translate(-21.95 -19.72)"/><path class="cls-1" d="M309.79,112.3v.11l-.74-.09c-.08,0,.23-.21.23-.21Z" transform="translate(-21.95 -19.72)"/><path class="cls-1" d="M295.27,41.8a23.17,23.17,0,0,0-11.43,2.4,14.61,14.61,0,0,0-7.1,7.59c-.05.12-.26.56-.26.56a27.06,27.06,0,0,1,17.71-21.8,34.22,34.22,0,0,1,9.11-2.06c1.08-.1,2.16-.18,3.24-.22a46.18,46.18,0,0,1,5.76.26,53.06,53.06,0,0,1,10.05,2l1.52.47a41.23,41.23,0,0,1,5.6,2.05,71.41,71.41,0,0,1,11.93,6.5c1.83,1.23,3.59,2.56,5.33,3.92.75.57,1.58,1.28,2,1.61a54.08,54.08,0,0,1,5.49,5.1A53,53,0,0,1,359.94,57c.19.28,1.11,1.59,1.75,2.57.73,1.19,1.67,2.72,2.32,4a84.48,84.48,0,0,1,6.29,17.26,36.3,36.3,0,0,1,.48,9,28.77,28.77,0,0,1-3,11.4,26.42,26.42,0,0,1-10.49,11.1,24,24,0,0,1-4.39,2c.74-.62,1.52-1.19,2.21-1.86a15.7,15.7,0,0,0,4.56-9.14,25.56,25.56,0,0,0-.35-9.1,77.64,77.64,0,0,0-8.24-17.8,70,70,0,0,0-5-6.59,77.43,77.43,0,0,0-5.55-5.91,96.3,96.3,0,0,0-11.43-9.4A86,86,0,0,0,319,48.47Q316,47,313,45.77a55.73,55.73,0,0,0-13.12-3.54A40.73,40.73,0,0,0,295.27,41.8Z" transform="translate(-21.95 -19.72)"/></svg>